<?xml version="1.0" encoding="utf-8"?>
<!-- Generator: Adobe Illustrator 23.0.1, SVG Export Plug-In . SVG Version: 6.00 Build 0)  -->
<svg version="1.1" id="Layer_1" xmlns="http://www.w3.org/2000/svg" xmlns:xlink="http://www.w3.org/1999/xlink" x="0px" y="0px"
	 viewBox="0 0 100 95" style="enable-background:new 0 0 100 95;" xml:space="preserve">
<style type="text/css">
	.st0{fill:none;}
</style>
<path class="st0" d="M333.6-129.3c-2,15-18.4,16.6-24.2,0c-6.8-19.4,11.2-47.9,30.9-56.5c16.2-7,27.1-5.1,36.2,11.3
	c6.1,11.1,0,27.1-4.8,28.5c-4.8,1.4-23.1-5.1-30.9,2C332.6-136.4,333.6-129.3,333.6-129.3z"/>
<path class="st0" d="M347.7-128.9c-2.2,6.1-1.5,11.9,1.6,13.1c3.1,1.1,9-2.6,11.2-8.7c2.2-6.1,2.4-12.4-0.7-13.6
	C356.8-139.2,349.9-135,347.7-128.9z"/>
<path d="M50,8.2c14.8-16.6,55.2-7.5,49.5,23.7C95.3,54.9,71.9,80.4,50,95C23.2,77.1,2.7,50.1,0.2,29.5C-3.3,0.4,35.5-8,50,8.2z"/>
</svg>
